# xmcd
#
# Track frame offsets:
# 150
# 12947
# 24410
# 38829
# 51345
# 64364
#
# Disc length: 1020 seconds
#
#
# Revision: 2
# Processed by: cddbd v1.5.1PL2 Copyright (c) Steve Scherf et al.
# Submitted via: FreeRIP 2.91 
#
DISCID=4a03fa06
DTITLE=Claude "Butch" Morgan - Dry Bones (pre-release)
DYEAR=2003
DGENRE=Folk-Rock
TTITLE0=Blubberball
TTITLE1=Cowboy and his Coffee
TTITLE2=God Drives a Pick-up Truck
TTITLE3=Mama's Big Boy
TTITLE4=I am Surrounded
TTITLE5=Something to Talk About
EXTD=
EXTT0=
EXTT1=
EXTT2=
EXTT3=
EXTT4=
EXTT5=
PLAYORDER=
